<?xml version="1.0" encoding="utf-8"?>
<svg viewBox="0 131.623 39.529 15.98" width="39.529" height="15.98" xmlns="http://www.w3.org/2000/svg">
  <path d="M 5.664 135.25 Q 5.502 135.25 5.358 135.319 Q 5.214 135.389 5.108 135.541 Q 5.001 135.694 4.938 135.93 Q 4.874 136.166 4.874 136.501 L 4.874 137.918 L 6.136 137.918 L 6.136 138.333 L 4.874 138.333 L 4.874 142.873 Q 4.874 143.657 4.67 144.319 Q 4.465 144.982 4.05 145.463 Q 3.636 145.944 3.013 146.215 Q 2.391 146.486 1.561 146.486 Q 1.268 146.486 0.997 146.437 Q 0.726 146.388 0.519 146.301 Q 0.311 146.215 0.187 146.097 Q 0.063 145.979 0.063 145.835 Q 0.063 145.731 0.092 145.624 Q 0.121 145.518 0.179 145.431 Q 0.236 145.345 0.32 145.29 Q 0.403 145.235 0.513 145.235 Q 0.576 145.235 0.625 145.299 Q 0.674 145.362 0.726 145.454 Q 0.778 145.547 0.844 145.659 Q 0.91 145.771 1.014 145.863 Q 1.118 145.956 1.27 146.019 Q 1.423 146.082 1.642 146.082 Q 1.936 146.082 2.161 145.964 Q 2.385 145.846 2.547 145.639 Q 2.708 145.431 2.817 145.149 Q 2.927 144.867 2.99 144.544 Q 3.054 144.221 3.08 143.87 Q 3.106 143.518 3.106 143.167 L 3.106 138.333 L 2.045 138.333 L 2.045 137.918 L 3.106 137.918 L 3.106 137.244 Q 3.106 136.737 3.229 136.359 Q 3.353 135.982 3.558 135.717 Q 3.762 135.452 4.022 135.285 Q 4.281 135.118 4.549 135.02 Q 4.817 134.922 5.07 134.887 Q 5.324 134.853 5.514 134.853 Q 5.923 134.853 6.24 134.913 Q 6.557 134.974 6.77 135.075 Q 6.983 135.175 7.093 135.308 Q 7.202 135.44 7.202 135.579 Q 7.202 135.682 7.17 135.789 Q 7.139 135.896 7.081 135.985 Q 7.024 136.074 6.94 136.129 Q 6.856 136.184 6.753 136.184 Q 6.689 136.184 6.637 136.115 Q 6.586 136.045 6.528 135.942 Q 6.47 135.838 6.401 135.717 Q 6.332 135.596 6.231 135.492 Q 6.13 135.389 5.992 135.319 Q 5.854 135.25 5.664 135.25 Z" style="fill: rgb(51, 51, 51); white-space: pre;"/>
  <path d="M 8.065 143.983 Q 7.392 143.983 6.926 143.6 Q 6.46 143.216 6.46 142.496 Q 6.46 141.93 7.009 141.452 Q 7.557 140.974 8.737 140.75 Q 8.938 140.703 9.203 140.662 Q 9.469 140.62 9.728 140.573 L 9.728 139.735 Q 9.728 138.933 9.528 138.626 Q 9.327 138.319 8.891 138.319 L 8.855 138.319 Q 8.584 138.319 8.425 138.49 Q 8.265 138.661 8.218 139.051 L 8.183 139.204 Q 8.147 139.676 7.935 139.895 Q 7.722 140.113 7.404 140.113 Q 7.109 140.113 6.914 139.93 Q 6.719 139.747 6.719 139.452 Q 6.719 138.968 7.05 138.638 Q 7.38 138.307 7.929 138.142 Q 8.478 137.977 9.115 137.977 Q 10.165 137.977 10.72 138.484 Q 11.274 138.992 11.274 140.136 L 11.274 142.768 Q 11.274 143.275 11.758 143.275 L 12.029 143.275 L 12.147 143.405 Q 11.935 143.676 11.675 143.824 Q 11.416 143.971 10.967 143.971 Q 10.46 143.971 10.159 143.73 Q 9.858 143.488 9.764 143.086 Q 9.386 143.488 9.02 143.735 Q 8.655 143.983 8.065 143.983 Z M 8.749 143.228 Q 8.985 143.228 9.197 143.122 Q 9.41 143.016 9.728 142.768 L 9.728 140.88 Q 9.422 140.927 9.103 140.998 Q 8.596 141.116 8.283 141.434 Q 7.97 141.753 7.97 142.296 Q 7.97 142.768 8.189 142.998 Q 8.407 143.228 8.749 143.228 Z" style="fill: rgb(51, 51, 51); white-space: pre;"/>
  <path d="M 14.317 143.971 L 12.381 143.818 L 12.381 143.594 L 12.499 143.57 Q 12.96 143.464 12.96 142.98 L 12.96 136.844 Q 12.96 136.608 12.871 136.478 Q 12.783 136.349 12.547 136.29 L 12.393 136.254 L 12.393 136.042 L 14.411 135.534 L 14.564 135.641 L 14.517 137.304 L 14.517 138.543 Q 15.355 137.977 16.323 137.977 Q 17.314 137.977 17.963 138.703 Q 18.612 139.428 18.612 140.939 Q 18.612 141.942 18.281 142.62 Q 17.951 143.299 17.396 143.641 Q 16.842 143.983 16.169 143.983 Q 15.721 143.983 15.278 143.865 Q 14.836 143.747 14.494 143.499 Z M 15.615 143.464 Q 16.004 143.464 16.299 143.24 Q 16.594 143.016 16.759 142.473 Q 16.924 141.93 16.924 140.986 Q 16.924 140.042 16.771 139.511 Q 16.618 138.98 16.329 138.768 Q 16.039 138.555 15.638 138.555 Q 15.107 138.555 14.553 138.862 L 14.553 143.169 Q 15.036 143.464 15.615 143.464 Z" style="fill: rgb(51, 51, 51); white-space: pre;"/>
  <path d="M 19.386 143.818 L 19.386 143.594 L 19.563 143.547 Q 19.953 143.417 19.953 142.957 Q 19.953 142.555 19.959 142.148 Q 19.965 141.741 19.965 141.34 L 19.965 136.856 Q 19.965 136.608 19.882 136.484 Q 19.799 136.36 19.563 136.301 L 19.386 136.254 L 19.386 136.03 L 21.451 135.534 L 21.605 135.641 L 21.558 137.304 L 21.558 142.957 Q 21.569 143.193 21.658 143.34 Q 21.746 143.488 21.971 143.547 L 22.136 143.594 L 22.136 143.818 Z" style="fill: rgb(204, 172, 120); white-space: pre;"/>
  <path d="M 24.076 143.983 Q 23.403 143.983 22.937 143.6 Q 22.471 143.216 22.471 142.496 Q 22.471 141.93 23.02 141.452 Q 23.568 140.974 24.748 140.75 Q 24.949 140.703 25.215 140.662 Q 25.48 140.62 25.74 140.573 L 25.74 139.735 Q 25.74 138.933 25.539 138.626 Q 25.338 138.319 24.902 138.319 L 24.866 138.319 Q 24.595 138.319 24.436 138.49 Q 24.276 138.661 24.229 139.051 L 24.194 139.204 Q 24.158 139.676 23.946 139.895 Q 23.734 140.113 23.415 140.113 Q 23.12 140.113 22.925 139.93 Q 22.731 139.747 22.731 139.452 Q 22.731 138.968 23.061 138.638 Q 23.391 138.307 23.94 138.142 Q 24.489 137.977 25.126 137.977 Q 26.176 137.977 26.731 138.484 Q 27.285 138.992 27.285 140.136 L 27.285 142.768 Q 27.285 143.275 27.769 143.275 L 28.041 143.275 L 28.159 143.405 Q 27.946 143.676 27.687 143.824 Q 27.427 143.971 26.979 143.971 Q 26.471 143.971 26.17 143.73 Q 25.869 143.488 25.775 143.086 Q 25.397 143.488 25.032 143.735 Q 24.666 143.983 24.076 143.983 Z M 24.76 143.228 Q 24.996 143.228 25.209 143.122 Q 25.421 143.016 25.74 142.768 L 25.74 140.88 Q 25.433 140.927 25.114 140.998 Q 24.607 141.116 24.294 141.434 Q 23.981 141.753 23.981 142.296 Q 23.981 142.768 24.2 142.998 Q 24.418 143.228 24.76 143.228 Z" style="fill: rgb(204, 172, 120); white-space: pre;"/>
  <path d="M 30.411 143.983 Q 29.844 143.983 29.39 143.859 Q 28.936 143.735 28.523 143.511 L 28.523 142.119 L 28.841 142.119 L 29.195 142.791 Q 29.419 143.228 29.708 143.44 Q 29.998 143.653 30.446 143.653 Q 31.001 143.653 31.331 143.411 Q 31.661 143.169 31.661 142.756 Q 31.661 142.378 31.414 142.142 Q 31.166 141.906 30.529 141.706 L 30.009 141.541 Q 29.313 141.328 28.906 140.898 Q 28.499 140.467 28.499 139.818 Q 28.499 139.31 28.77 138.892 Q 29.042 138.473 29.561 138.225 Q 30.08 137.977 30.824 137.977 Q 31.307 137.977 31.714 138.089 Q 32.122 138.201 32.511 138.402 L 32.44 139.664 L 32.133 139.664 L 31.768 138.992 Q 31.579 138.614 31.384 138.467 Q 31.189 138.319 30.788 138.319 Q 30.363 138.319 30.039 138.538 Q 29.714 138.756 29.714 139.145 Q 29.714 139.511 29.986 139.741 Q 30.257 139.971 30.859 140.172 L 31.366 140.325 Q 32.228 140.597 32.594 141.045 Q 32.959 141.493 32.959 142.119 Q 32.959 142.957 32.293 143.47 Q 31.626 143.983 30.411 143.983 Z" style="fill: rgb(204, 172, 120); white-space: pre;"/>
  <path d="M 33.396 143.818 L 33.396 143.582 L 33.55 143.535 Q 33.974 143.405 33.974 142.945 L 33.974 136.868 Q 33.974 136.62 33.892 136.496 Q 33.809 136.372 33.573 136.313 L 33.396 136.266 L 33.396 136.042 L 35.39 135.534 L 35.579 135.641 L 35.532 137.304 L 35.532 138.815 Q 35.945 138.473 36.435 138.225 Q 36.924 137.977 37.491 137.977 Q 38.27 137.977 38.712 138.414 Q 39.155 138.85 39.155 139.759 L 39.155 142.957 Q 39.155 143.193 39.249 143.334 Q 39.343 143.476 39.579 143.547 L 39.686 143.582 L 39.686 143.818 L 36.995 143.818 L 36.995 143.582 L 37.137 143.535 Q 37.562 143.417 37.562 142.945 L 37.562 139.535 Q 37.562 139.051 37.396 138.862 Q 37.231 138.673 36.818 138.673 Q 36.535 138.673 36.222 138.779 Q 35.91 138.886 35.567 139.133 L 35.567 142.968 Q 35.567 143.204 35.662 143.346 Q 35.756 143.488 35.98 143.547 L 36.087 143.582 L 36.087 143.818 Z" style="fill: rgb(204, 172, 120); white-space: pre;"/>
</svg>