<?xml version="1.0" encoding="UTF-8"?>
<svg width="700pt" height="700pt" version="1.1" viewBox="0 0 700 700" xmlns="http://www.w3.org/2000/svg" xmlns:xlink="http://www.w3.org/1999/xlink">
 <defs>
 </defs>
 <g>
  <path d="m350 504-7.6719-8.3984c-6.5508-7.168-160.33-176.4-160.33-268.24 0-94.473 75.375-171.36 168-171.36s168 76.887 168 171.36c0 91.84-153.78 261.07-160.33 268.24zm0-426.61c-81.031 0-147 67.258-147 149.91 0 72.574 115.75 209.44 147 245 31.246-35.617 147-172.43 147-245 0-82.652-65.969-149.91-147-149.91z"/>
  <path d="m350 284.82c-34.719 0-63-28.84-63-64.23 0-35.395 28.281-64.289 63-64.289s63 28.84 63 64.23c0 35.395-28.281 64.289-63 64.289zm0-107.07c-23.184 0-42 19.207-42 42.84 0 23.633 18.816 42.84 42 42.84s42-19.207 42-42.84c0-23.629-18.816-42.84-42-42.84z"/>
 </g>
</svg>
