<?xml version="1.0" encoding="UTF-8"?>
<svg width="700pt" height="700pt" version="1.1" viewBox="0 0 700 700" xmlns="http://www.w3.org/2000/svg" xmlns:xlink="http://www.w3.org/1999/xlink">
 <defs>
 </defs>
 <g>
  <path d="m349.67 13.883c146.78 0 265.79 119.01 265.79 265.79 0 146.78-119.01 265.79-265.79 265.79-146.78 0-265.79-119.01-265.79-265.79 0-146.78 119.01-265.79 265.79-265.79zm-55.539 310.08 177.85-177.19c7.9336-7.9336 20.496-7.9336 28.43 0l23.141 22.48c7.9336 7.9336 7.9336 21.156 0 29.09l-214.88 214.88c-7.9336 7.9336-20.496 7.9336-28.43 0l-103.8-103.8c-7.9336-7.9336-7.9336-21.156 0-29.09l22.48-22.48c7.9336-7.9336 21.156-7.9336 29.09 0l66.117 66.117zm55.539-294.21c-138.18 0-249.92 111.73-249.92 249.92 0 138.18 111.73 250.58 249.92 250.58 138.18 0 250.58-112.4 250.58-250.58 0-138.18-112.4-249.92-250.58-249.92z"/>
 </g>
</svg>
