<?xml version="1.0" encoding="UTF-8"?>
<svg width="700pt" height="700pt" version="1.1" viewBox="0 0 700 700" xmlns="http://www.w3.org/2000/svg" xmlns:xlink="http://www.w3.org/1999/xlink">
 <defs>
 </defs>
 <g>
  <path d="m577.12 188.26-39.32 39.316c-1.9883 1.9883-4.6836 3.1094-7.4961 3.1094h-53.031c-5.8594 0-10.605-4.75-10.605-10.609v-190.91c0-5.8594 4.7461-10.605 10.605-10.605h53.031c2.8125 0 5.5078 1.1172 7.4961 3.1055l39.32 39.316h69.848c29.289 0 53.031 23.742 53.031 53.031v21.211c0 29.289-23.742 53.031-53.031 53.031h-10.605v339.39h53.031c5.8555 0 10.605 4.7461 10.605 10.605 0 5.8555-4.75 10.605-10.605 10.605h-127.27c-5.8594 0-10.605-4.75-10.605-10.605 0-5.8594 4.7461-10.605 10.605-10.605h53.031v-339.39zm-89.242 21.211h38.031l36.211-36.211v-97.273l-36.211-36.211h-38.031zm95.453-42.422h63.637c17.574 0 31.82-14.246 31.82-31.82v-21.211c0-17.574-14.246-31.82-31.82-31.82h-63.637zm-460.45-106.06 39.32-39.316c1.9883-1.9883 4.6836-3.1055 7.4961-3.1055h53.031c5.8594 0 10.605 4.7461 10.605 10.605v190.91c0 5.8594-4.7461 10.609-10.605 10.609h-53.031c-2.8125 0-5.5078-1.1211-7.4961-3.1094l-39.32-39.316h-38.031v339.39h53.031c5.8594 0 10.605 4.7461 10.605 10.605 0 5.8555-4.7461 10.605-10.605 10.605h-127.27c-5.8555 0-10.605-4.75-10.605-10.605 0-5.8594 4.75-10.605 10.605-10.605h53.031v-339.39h-10.605c-29.289 0-53.031-23.742-53.031-53.031v-21.211c0-29.289 23.742-53.031 53.031-53.031zm-6.2109 21.211h-63.637c-17.574 0-31.82 14.246-31.82 31.82v21.211c0 17.574 14.246 31.82 31.82 31.82h63.637zm21.211 91.062 36.211 36.211h38.031v-169.7h-38.031l-36.211 36.211zm140.05 258.94h144.14l-26.516-74.242h-91.109zm-7.5781 21.215-16.426 45.992c-1.9688 5.5156-8.0391 8.3906-13.555 6.418-5.5156-1.9688-8.3906-8.0391-6.418-13.555l47.965-134.31h-37.98c-5.8555 0-10.605-4.7461-10.605-10.605 0-5.8555 4.75-10.605 10.605-10.605h212.12c5.8555 0 10.605 4.75 10.605 10.605 0 5.8594-4.75 10.605-10.605 10.605h-37.98l47.965 134.31c1.9727 5.5156-0.90234 11.586-6.418 13.555-5.5156 1.9727-11.586-0.90234-13.555-6.418l-16.426-45.992z"/>
 </g>
</svg>
