<?xml version="1.0" encoding="utf-8"?>
<svg width="32px" height="32px" viewBox="0 0 32 32" version="1.1" xmlns="http://www.w3.org/2000/svg" xmlns:xlink="http://www.w3.org/1999/xlink">
    <title>Group</title>
    <g id="Page-1" stroke="none" stroke-width="1" fill="none" fill-rule="evenodd">
        <g id="Group">
          <rect id="Rectangle" fill="#E5261F" x="0" y="0" width="32" height="32" rx="3" style="fill: rgb(204, 172, 120);"></rect>
          <path d="M 193.216 135.25 Q 193.054 135.25 192.91 135.319 Q 192.766 135.389 192.66 135.541 Q 192.553 135.694 192.49 135.93 Q 192.426 136.166 192.426 136.501 L 192.426 137.918 L 193.688 137.918 L 193.688 138.333 L 192.426 138.333 L 192.426 142.873 Q 192.426 143.657 192.222 144.319 Q 192.017 144.982 191.602 145.463 Q 191.188 145.944 190.565 146.215 Q 189.943 146.486 189.113 146.486 Q 188.82 146.486 188.549 146.437 Q 188.278 146.388 188.071 146.301 Q 187.863 146.215 187.739 146.097 Q 187.615 145.979 187.615 145.835 Q 187.615 145.731 187.644 145.624 Q 187.673 145.518 187.731 145.431 Q 187.788 145.345 187.872 145.29 Q 187.955 145.235 188.065 145.235 Q 188.128 145.235 188.177 145.299 Q 188.226 145.362 188.278 145.454 Q 188.33 145.547 188.396 145.659 Q 188.462 145.771 188.566 145.863 Q 188.67 145.956 188.822 146.019 Q 188.975 146.082 189.194 146.082 Q 189.488 146.082 189.713 145.964 Q 189.937 145.846 190.099 145.639 Q 190.26 145.431 190.369 145.149 Q 190.479 144.867 190.542 144.544 Q 190.606 144.221 190.632 143.87 Q 190.658 143.518 190.658 143.167 L 190.658 138.333 L 189.597 138.333 L 189.597 137.918 L 190.658 137.918 L 190.658 137.244 Q 190.658 136.737 190.781 136.359 Q 190.905 135.982 191.11 135.717 Q 191.314 135.452 191.574 135.285 Q 191.833 135.118 192.101 135.02 Q 192.369 134.922 192.622 134.887 Q 192.876 134.853 193.066 134.853 Q 193.475 134.853 193.792 134.913 Q 194.109 134.974 194.322 135.075 Q 194.535 135.175 194.645 135.308 Q 194.754 135.44 194.754 135.579 Q 194.754 135.682 194.722 135.789 Q 194.691 135.896 194.633 135.985 Q 194.576 136.074 194.492 136.129 Q 194.408 136.184 194.305 136.184 Q 194.241 136.184 194.189 136.115 Q 194.138 136.045 194.08 135.942 Q 194.022 135.838 193.953 135.717 Q 193.884 135.596 193.783 135.492 Q 193.682 135.389 193.544 135.319 Q 193.406 135.25 193.216 135.25 Z" style="fill: rgb(255, 255, 255); white-space: pre;"/>
        </g>
    </g>
</svg>