<?xml version="1.0" encoding="utf-8"?>
<svg viewBox="0 0 32 32" width="32" height="32" xmlns="http://www.w3.org/2000/svg" xmlns:bx="https://boxy-svg.com">
  <rect width="32" height="32" rx="3" ry="3" style="fill: rgb(204, 172, 120);" y="0" bx:origin="0 0"/>
  <path d="M 19.119 5.497 Q 18.791 5.497 18.498 5.638 Q 18.205 5.778 17.988 6.089 Q 17.772 6.4 17.643 6.88 Q 17.514 7.361 17.514 8.04 L 17.514 10.923 L 20.08 10.923 L 20.08 11.767 L 17.514 11.767 L 17.514 21.001 Q 17.514 22.595 17.098 23.943 Q 16.682 25.29 15.838 26.269 Q 14.994 27.247 13.729 27.798 Q 12.463 28.349 10.775 28.349 Q 10.178 28.349 9.627 28.249 Q 9.076 28.15 8.654 27.974 Q 8.232 27.798 7.981 27.558 Q 7.729 27.318 7.729 27.025 Q 7.729 26.814 7.787 26.597 Q 7.846 26.38 7.963 26.204 Q 8.08 26.028 8.25 25.917 Q 8.42 25.806 8.643 25.806 Q 8.772 25.806 8.871 25.935 Q 8.971 26.064 9.076 26.251 Q 9.182 26.439 9.316 26.667 Q 9.451 26.896 9.662 27.083 Q 9.873 27.271 10.184 27.4 Q 10.494 27.528 10.939 27.528 Q 11.537 27.528 11.994 27.288 Q 12.451 27.048 12.779 26.626 Q 13.107 26.204 13.33 25.63 Q 13.553 25.056 13.682 24.4 Q 13.811 23.743 13.863 23.028 Q 13.916 22.314 13.916 21.599 L 13.916 11.767 L 11.76 11.767 L 11.76 10.923 L 13.916 10.923 L 13.916 9.552 Q 13.916 8.521 14.168 7.753 Q 14.42 6.986 14.836 6.446 Q 15.252 5.907 15.779 5.568 Q 16.307 5.228 16.852 5.028 Q 17.397 4.829 17.912 4.759 Q 18.428 4.689 18.814 4.689 Q 19.647 4.689 20.291 4.812 Q 20.936 4.935 21.369 5.14 Q 21.803 5.345 22.025 5.614 Q 22.248 5.884 22.248 6.165 Q 22.248 6.376 22.184 6.593 Q 22.119 6.81 22.002 6.991 Q 21.885 7.173 21.715 7.284 Q 21.545 7.396 21.334 7.396 Q 21.205 7.396 21.1 7.255 Q 20.994 7.114 20.877 6.903 Q 20.76 6.693 20.619 6.446 Q 20.479 6.2 20.273 5.989 Q 20.068 5.778 19.787 5.638 Q 19.506 5.497 19.119 5.497 Z" style="fill: rgb(255, 255, 255); white-space: pre;"/>
</svg>