<?xml version="1.0" encoding="UTF-8"?>
<svg width="700pt" height="700pt" version="1.1" viewBox="0 0 700 700" xmlns="http://www.w3.org/2000/svg" xmlns:xlink="http://www.w3.org/1999/xlink">
 <defs>
 </defs>
 <g>
  <path d="m341.28 191.13v-2.7656h-6.2344v-6.2617l3-0.16797c1.5391-0.089844 2.7227-1.4102 2.6328-2.957-0.089844-1.5391-1.457-2.6836-2.957-2.6328l-2.6836 0.15234v-5.207l3-0.17188c1.5391-0.089844 2.7227-1.4102 2.6328-2.9531-0.089844-1.5469-1.457-2.7266-2.957-2.6367l-2.6836 0.15234v-9.9336h-48.367v12.719l-2.9961 0.16797c-1.5391 0.089843-2.7227 1.4102-2.6328 2.957 0.085938 1.4883 1.3164 2.6367 2.793 2.6367 0.054687 0 0.11328 0 0.16406-0.003907l2.6719-0.15234v5.207l-2.9961 0.16797c-1.5391 0.089843-2.7227 1.4102-2.6328 2.957 0.085938 1.4883 1.3164 2.6367 2.793 2.6367 0.054687 0 0.11328 0 0.16406-0.003907l2.6719-0.15234v3.4844l-6.2148-0.003906v2.7656h-4.9688v285.57h70.766v-285.57zm-49-29.785h37.168v4.6602l-37.168 2.1406zm0 12.398 37.168-2.1328v5.207l-37.168 2.1328zm0 10.812 37.168-2.1328v5.9414h-37.168z"/>
  <path d="m398.66 307.29v-126.6l-3.0977-12.977h-1.8633c0.15625-1.0312 0.28125-2.0625 0.42578-3.0898h8.0352c1.082 0 1.9609-0.87891 1.9609-1.9648 0-1.0859-0.875-1.9609-1.9609-1.9609h-7.4883c0.14453-1.1484 0.32031-2.2891 0.45312-3.4375h8.8359c1.082 0 1.9609-0.87891 1.9609-1.9648 0-1.0859-0.875-1.9609-1.9609-1.9609h-8.4453c0.11719-1.1484 0.24609-2.2969 0.34766-3.4453h8.5859c1.082 0 1.9609-0.875 1.9609-1.9609 0-1.0859-0.875-1.9648-1.9609-1.9648h-8.2617c0.085938-1.1406 0.14062-2.2891 0.21094-3.4375h8.4336c1.082 0 1.9609-0.875 1.9609-1.9609 0-1.0859-0.875-1.9648-1.9609-1.9648h-8.1875c0.054688-1.1406 0.078125-2.2891 0.11719-3.4375h8.1328c1.082 0 1.9609-0.875 1.9609-1.9609 0-1.0859-0.875-1.9648-1.9609-1.9648h-8.0352c0.023437-1.1484 0.078125-2.2891 0.085937-3.4375h8.3398c1.082 0 1.9609-0.87891 1.9609-1.9648 0-1.0859-0.875-1.9609-1.9609-1.9609h-8.3906c-0.003906-1.1484-0.015625-2.2969-0.042969-3.4375h8.0469c1.082 0 1.9609-0.87891 1.9609-1.9648 0-1.0859-0.875-1.9609-1.9609-1.9609h-8.1367c-0.039063-1.1484-0.11719-2.2969-0.17188-3.4375h8.2539c1.082 0 1.9609-0.87891 1.9609-1.9648 0-1.0859-0.875-1.9609-1.9609-1.9609h-8.457c-0.074219-1.1484-0.15234-2.2969-0.24609-3.4453h8.3086c1.082 0 1.9609-0.875 1.9609-1.9609 0-1.0859-0.875-1.9648-1.9609-1.9648h-8.6641c-0.10547-1.1406-0.18359-2.2891-0.30859-3.4375h8.4844c1.082 0 1.9609-0.875 1.9609-1.9609 0-1.0859-0.875-1.9648-1.9609-1.9648h-8.9492c-0.13281-1.1484-0.28516-2.2891-0.4375-3.4375h7.582c1.082 0 1.9609-0.875 1.9609-1.9609 0-1.0859-0.875-1.9648-1.9609-1.9648h-8.1641c-0.51953-2.1406-2.4766-3.7852-4.7031-3.7852h-0.5c-1.1992 0-2.2695 0.46875-3.0195 1.332-0.57812 0.66016-0.81641 1.5352-0.85547 2.4531h-8.8086c-1.082 0-1.9609 0.87891-1.9609 1.9648 0 1.0859 0.875 1.9609 1.9609 1.9609h9.1602c0.15234 1.1484 0.30078 2.2891 0.4375 3.4375h-7.7969c-1.082 0-1.9609 0.87891-1.9609 1.9648 0 1.0859 0.875 1.9609 1.9609 1.9609h8.2773c0.11719 1.1484 0.20312 2.2969 0.30859 3.4375h-8.1016c-1.082 0-1.9609 0.87891-1.9609 1.9648 0 1.0859 0.875 1.9609 1.9609 1.9609h8.4492c0.09375 1.1484 0.17969 2.2969 0.25781 3.4453l-8.3125-0.003906c-1.082 0-1.9609 0.875-1.9609 1.9609s0.875 1.9648 1.9609 1.9648h8.5195c0.0625 1.1406 0.13281 2.2891 0.17187 3.4375h-8.6367c-1.082 0-1.9609 0.875-1.9609 1.9609 0 1.0859 0.875 1.9648 1.9609 1.9648h8.7305c0.027344 1.1406 0.039063 2.2891 0.050782 3.4375l-8.3906 0.003906c-1.082 0-1.9609 0.875-1.9609 1.9609 0 1.0859 0.875 1.9648 1.9609 1.9648h8.4375c-0.011719 1.1484-0.066407 2.2891-0.089844 3.4375h-8.7383c-1.082 0-1.9609 0.87891-1.9609 1.9648 0 1.0859 0.875 1.9609 1.9609 1.9609h8.6445c-0.042969 1.1484-0.074219 2.2969-0.11719 3.4375h-8.582c-1.082 0-1.9609 0.87891-1.9609 1.9648 0 1.0859 0.875 1.9609 1.9609 1.9609h8.3398c-0.074219 1.1484-0.12891 2.2969-0.21875 3.4375h-8.5117c-1.082 0-1.9609 0.87891-1.9609 1.9648 0 1.0859 0.875 1.9609 1.9609 1.9609h8.1797c-0.10547 1.1484-0.23047 2.2969-0.35156 3.4453h-8.3086c-1.082 0-1.9609 0.875-1.9609 1.9609 0 1.0859 0.875 1.9648 1.9609 1.9648h7.918c-0.13281 1.1484-0.3125 2.2891-0.46484 3.4375h-9.2578c-1.082 0-1.9609 0.875-1.9609 1.9609 0 1.0859 0.875 1.9648 1.9609 1.9648h8.7148c-0.14062 0.95703-0.24609 1.9141-0.39844 2.8711l-0.035156 0.21875h-1.6875l-3.1016 12.977v126.6h-25.848v169.41h70.766v-169.41zm-10.766-220.83c0.20703-0.24219 0.51953-0.36328 0.90234-0.36328h0.5c0.64844 0 1.2109 0.4375 1.6016 0.98438h-3.1523c0.027344-0.21875 0.007812-0.46484 0.14844-0.62109zm0.20312 4.5391h3.6641c0.15234 1.1484 0.30078 2.2891 0.44141 3.4375h-3.668c-0.14062-1.1445-0.28906-2.2891-0.4375-3.4375zm0.90234 7.3594h3.6719c0.125 1.1484 0.20703 2.2969 0.3125 3.4375h-3.6719c-0.11328-1.1367-0.19531-2.2812-0.3125-3.4375zm0.66016 7.3633h3.6797c0.089844 1.1484 0.16797 2.2969 0.24609 3.4453h-3.6836c-0.082032-1.1484-0.14844-2.2969-0.24219-3.4453zm0.44531 7.3672h3.6797c0.0625 1.1406 0.14062 2.2891 0.17969 3.4375h-3.6797c-0.039062-1.1484-0.12109-2.2969-0.17969-3.4375zm0.26562 7.3633h3.6836c0.027343 1.1406 0.042968 2.2891 0.054687 3.4375h-3.6836c-0.011719-1.1484-0.03125-2.2969-0.054687-3.4375zm0.082031 7.3555h3.6914c-0.011719 1.1484-0.054687 2.2891-0.078125 3.4375h-3.6836c0.019532-1.1445 0.066407-2.2891 0.070313-3.4375zm-0.15625 7.3672h3.6797c-0.039062 1.1484-0.089843 2.2969-0.14062 3.4375h-3.6797c0.058594-1.1445 0.10156-2.2891 0.14062-3.4375zm-0.36719 7.3555h3.6797c-0.074219 1.1484-0.11719 2.2969-0.20703 3.4375h-3.6719c0.078125-1.1406 0.125-2.2891 0.19922-3.4375zm-0.55469 7.3672h3.6719c-0.10547 1.1484-0.21875 2.2969-0.33594 3.4453h-3.668c0.125-1.1523 0.23438-2.3008 0.33203-3.4453zm-0.73438 7.3633h3.6641c-0.13281 1.1484-0.3125 2.2891-0.46484 3.4375h-3.6523c0.14844-1.1484 0.32422-2.2891 0.45312-3.4375zm2.6758 7.3594c-0.085937 0.56641-0.14062 1.125-0.23047 1.6914h-3.6445c0.089844-0.56641 0.14062-1.125 0.22266-1.6914zm27.602 306.48h-59.566v-158.21h59.566z"/>
 </g>
</svg>
