<?xml version="1.0" encoding="UTF-8"?>
<svg width="700pt" height="700pt" version="1.1" viewBox="0 0 700 700" xmlns="http://www.w3.org/2000/svg" xmlns:xlink="http://www.w3.org/1999/xlink">
 <defs>
 </defs>
 <g>
  <path d="m258.46 294.36 32.309 39.488c7.1797 7.1797-7.1797 21.539-14.359 10.77l-32.309-39.488c-3.5898 3.5898-3.5898 3.5898-7.1797 3.5898l28.719 43.078c3.5898 10.77-10.77 21.539-17.949 10.77l-25.129-43.078h-7.1797l21.539 50.258c3.5898 10.77-14.359 17.949-17.949 7.1797l-21.539-50.258h-7.1797l14.359 53.848c3.5898 10.77-14.359 14.359-17.949 3.5898l-14.359-53.848h-3.5898l3.5898 57.438c0 10.77-17.949 14.359-17.949 0l-7.1797-53.848h-3.5898l-3.5898 53.848c0 14.359-21.539 10.77-17.949 0l3.5898-57.438h-7.1797l-10.77 53.848c-3.5898 14.359-21.539 10.77-17.949-3.5898l10.77-53.848h-7.1797l-17.949 50.258c-3.5898 10.77-21.539 3.5898-17.949-7.1797l17.949-50.258s-3.5898 0-3.5898-3.5898l-28.719 46.668c-3.5898 10.77-21.539 3.5898-14.359-7.1797l25.129-46.668-3.5898-3.5898-32.309 43.078c-7.1797 7.1797-25.129-3.5898-14.359-14.359l32.309-39.488-10.77-10.77c-7.1797-7.1797 7.1797-21.539 14.359-10.77 46.668 53.848 168.72 53.848 211.79 0 10.77-10.77 25.129 3.5898 14.359 10.77 0 3.5898-3.5898 7.1797-7.1797 10.77z"/>
  <path d="m664.1 294.36 32.309 39.488c7.1797 7.1797-7.1797 21.539-14.359 10.77l-32.309-39.488c0 3.5898-3.5898 3.5898-3.5898 3.5898l25.129 43.078c7.1797 10.77-10.77 21.539-17.949 10.77l-25.129-43.078h-7.1797l21.539 50.258c3.5898 10.77-14.359 17.949-17.949 7.1797l-21.539-50.258h-3.5898l10.77 53.848c3.5898 10.77-14.359 14.359-17.949 3.5898l-10.77-53.848h-7.1797l3.5898 57.438c3.5898 10.77-17.949 14.359-17.949 0l-3.5898-53.848h-7.1797l-3.5898 53.848c0 14.359-17.949 10.77-17.949 0l3.5898-57.438h-7.1797l-10.77 53.848c-3.5898 14.359-21.539 10.77-17.949-3.5898l10.77-53.848h-3.5898l-21.539 50.258c-3.5898 10.77-21.539 3.5898-17.949-7.1797l21.539-50.258c-3.5898 0-3.5898 0-7.1797-3.5898l-25.129 46.668c-7.1797 10.77-21.539 3.5898-17.949-7.1797l28.719-46.668c-3.5898 0-7.1797-3.5898-7.1797-3.5898l-32.309 43.078c-7.1797 7.1797-21.539-3.5898-14.359-14.359l32.309-39.488c-3.5898-3.5898-7.1797-7.1797-10.77-10.77-7.1797-7.1797 7.1797-21.539 14.359-10.77 46.668 53.848 168.72 53.848 215.38 0 7.1797-10.77 21.539 3.5898 14.359 10.77-3.5898 3.5898-7.1797 7.1797-10.77 10.77z"/>
 </g>
</svg>
